<svg width="93" height="32" viewBox="0 0 93 32" fill="none" xmlns="http://www.w3.org/2000/svg">
<rect y="3" width="29" height="29" rx="8.7" fill="url(#paint0_linear_2057_1728)"/>
<path d="M19.404 6.294L11.69 27H8.761L16.475 6.294H19.404Z" fill="#261E2F"/>
<path d="M46.749 11.958V13.929H43.671V12.417C43.671 11.958 43.536 11.661 43.104 11.661C42.645 11.661 42.537 11.985 42.537 12.417V12.714C42.537 13.362 42.672 13.632 43.158 14.118L45.075 16.008C46.56 17.493 46.938 18.492 46.938 20.031V20.517C46.938 22.542 45.831 24.243 43.347 24.243H42.645C40.134 24.243 39.135 22.839 39.135 21.084V18.708H42.321V20.652C42.321 21.192 42.537 21.462 42.942 21.462H42.969C43.374 21.462 43.536 21.138 43.536 20.625V20.301C43.536 19.599 43.428 19.113 42.78 18.492L40.944 16.737C39.648 15.495 39.324 14.415 39.324 12.903V12.444C39.324 10.5 40.431 9.204 42.726 9.204H43.455C45.912 9.204 46.749 10.365 46.749 11.958ZM47.744 9.474H51.2V11.067C51.713 10.23 52.469 9.312 53.738 9.312H53.792C55.358 9.312 56.087 10.635 56.087 12.417V21.084C56.087 23.028 54.953 24.297 53.657 24.297H53.603C52.523 24.297 51.767 23.595 51.2 22.731V29.076H47.744V9.474ZM51.2 13.146V20.49C51.2 21.138 51.497 21.462 51.875 21.462C52.388 21.462 52.55 21.084 52.55 20.517V13.146C52.55 12.579 52.388 12.228 51.875 12.228C51.389 12.228 51.2 12.606 51.2 13.146ZM57.1898 24V3.912H60.6458V11.148C61.1858 10.338 61.9958 9.42 63.2378 9.42H63.3728C64.6958 9.42 65.5058 10.392 65.5058 11.688V24H62.0228V13.254C62.0228 12.822 61.8878 12.444 61.3478 12.444C60.7808 12.444 60.6458 12.822 60.6458 13.362V24H57.1898ZM70.8476 9.204C73.2776 9.204 74.4926 10.473 74.4926 12.903V17.196H69.8756V20.355C69.8756 20.922 70.0376 21.246 70.5506 21.246C71.0096 21.246 71.1716 20.895 71.1716 20.355V18.195H74.4926V20.841C74.4926 23.109 72.8996 24.27 70.8476 24.27H70.1996C68.0396 24.27 66.5546 23.082 66.5546 20.841V12.849C66.5546 10.878 67.5806 9.204 70.1996 9.204H70.8476ZM69.8756 12.849V14.604H71.2796V12.849C71.2796 12.255 71.1446 11.877 70.5776 11.877C69.9566 11.877 69.8756 12.255 69.8756 12.849ZM78.9566 9.474V11.283C79.1996 10.689 79.8206 9.393 81.2516 9.393H81.4136C82.5746 9.393 83.0606 10.095 83.0606 11.175V16.44H79.8476V13.119C79.8476 12.633 79.7666 12.417 79.4156 12.417C79.0646 12.417 78.9836 12.66 78.9836 13.119V24H75.5276V9.474H78.9566ZM88.2098 9.204C90.6398 9.204 91.8548 10.473 91.8548 12.903V17.196H87.2378V20.355C87.2378 20.922 87.3998 21.246 87.9128 21.246C88.3718 21.246 88.5338 20.895 88.5338 20.355V18.195H91.8548V20.841C91.8548 23.109 90.2618 24.27 88.2098 24.27H87.5618C85.4018 24.27 83.9168 23.082 83.9168 20.841V12.849C83.9168 10.878 84.9428 9.204 87.5618 9.204H88.2098ZM87.2378 12.849V14.604H88.6418V12.849C88.6418 12.255 88.5068 11.877 87.9398 11.877C87.3188 11.877 87.2378 12.255 87.2378 12.849Z" fill="white"/>
<defs>
<linearGradient id="paint0_linear_2057_1728" x1="0" y1="17.5" x2="29" y2="17.5" gradientUnits="userSpaceOnUse">
<stop stop-color="#A6FD7A"/>
<stop offset="1" stop-color="#E7F586"/>
</linearGradient>
</defs>
</svg>
